<?xml version="1.0" encoding="utf-8"?>
<!-- Generator: Adobe Illustrator 14.0.0, SVG Export Plug-In . SVG Version: 6.00 Build 43363)  -->
<!DOCTYPE svg PUBLIC "-//W3C//DTD SVG 1.1//EN" "http://www.w3.org/Graphics/SVG/1.1/DTD/svg11.dtd">
<svg version="1.1" id="Layer_1" xmlns="http://www.w3.org/2000/svg" xmlns:xlink="http://www.w3.org/1999/xlink" x="0px" y="0px"
	 width="23px" height="24.417px" viewBox="76 0 1 24.417" enable-background="new 0 0 76 24.417" xml:space="preserve">
<polygon fill-rule="evenodd" clip-rule="evenodd" fill="#DC0028" points="84.496,10.557 84.473,10.557 84.52,10.742 84.543,10.928 
		84.566,11.324 84.543,11.674 84.473,12.068 84.404,12.441 84.264,12.789 84.102,13.162 83.916,13.486 83.684,13.814 83.426,14.092 
		83.148,14.371 82.891,14.559 82.566,14.768 82.217,14.977 81.844,15.139 81.473,15.256 81.076,15.35 80.682,15.418 80.564,15.418 
		80.379,15.162 80.24,15.023 79.961,14.697 79.658,14.418 79.309,14.162 78.961,13.93 78.588,13.721 78.193,13.533 77.773,13.395 
		77.262,13.254 76.82,13.186 76.4,13.162 76.238,13.139 76.145,12.906 76.006,12.557 75.889,12.162 75.844,11.812 75.797,11.418 
		75.82,11.021 75.865,10.648 75.959,10.277 76.053,9.904 76.238,9.555 76.424,9.23 76.658,8.928 76.914,8.625 77.191,8.346 
		77.518,8.09 77.844,7.881 78.215,7.672 78.588,7.531 78.961,7.393 79.355,7.299 79.773,7.23 80.379,7.23 80.775,7.252 81.17,7.322 
		81.564,7.416 81.938,7.555 82.311,7.719 82.635,7.928 82.984,8.16 83.031,8.184 79.193,1.994 73.121,2.041 69.422,8.02 
		69.678,7.857 70.051,7.672 70.423,7.531 70.818,7.393 71.214,7.322 71.633,7.252 72.027,7.23 72.447,7.252 72.842,7.322 
		73.238,7.393 73.633,7.531 74.006,7.672 74.354,7.857 74.68,8.066 74.982,8.299 75.262,8.578 75.518,8.881 75.588,8.951 
		75.494,9.16 75.332,9.533 75.168,9.928 75.076,10.324 75.006,10.719 74.959,11.137 74.959,11.533 75.006,11.951 75.076,12.371 
		75.191,12.766 75.377,13.254 75.564,13.627 75.588,13.697 75.424,13.906 75.285,14.047 75.029,14.303 74.727,14.559 74.4,14.791 
		74.052,14.977 73.68,15.139 73.331,15.279 72.936,15.35 72.517,15.418 72.145,15.441 71.726,15.418 71.33,15.371 70.935,15.279 
		70.562,15.162 70.027,14.93 69.678,14.744 69.353,14.535 69.051,14.279 68.771,14 68.516,13.697 68.283,13.371 68.096,13.045 
		67.91,12.627 67.817,12.277 67.725,11.906 67.701,11.51 67.678,11.137 67.701,10.928 67.701,10.859 63.979,16.977 66.887,22.002 
		74.866,21.979 74.634,21.91 74.447,21.84 74.075,21.676 73.727,21.49 73.4,21.258 73.098,21.002 72.818,20.723 72.562,20.42 
		72.354,20.094 72.145,19.77 72.005,19.396 71.889,19.025 71.795,18.535 71.771,18.141 71.795,17.768 71.818,17.396 71.889,17.023 
		72.005,16.65 72.168,16.279 72.214,16.186 72.47,16.162 72.68,16.162 73.098,16.094 73.54,15.977 73.936,15.861 74.331,15.697 
		74.727,15.488 75.076,15.279 75.424,15.023 75.865,14.627 76.145,14.326 76.4,14 76.471,13.93 76.518,13.93 76.75,13.953 
		77.123,14.023 77.541,14.115 77.914,14.256 78.285,14.418 78.635,14.627 78.938,14.859 79.24,15.094 79.496,15.371 79.752,15.674 
		79.961,16 80.146,16.35 80.285,16.697 80.402,17.07 80.473,17.443 80.52,17.814 80.52,18.117 80.496,18.514 80.426,18.861 
		80.309,19.234 80.17,19.605 80.008,19.932 79.752,20.373 79.496,20.652 79.264,20.932 78.938,21.188 78.635,21.42 78.285,21.629 
		77.914,21.793 77.541,21.932 77.447,21.955 85.125,21.955 88.266,16.676 84.496,10.557 84.496,10.557 	"/>
</svg>
