<svg xmlns="http://www.w3.org/2000/svg" xml:space="preserve" width="23" height="24.417" viewBox="76 0 1 24.417"><path fill="#DC0028" fill-rule="evenodd" d="M84.496 10.557h-.023l.047.185.023.186.023.396-.023.35-.07.394-.069.373-.14.348-.162.373-.186.324-.232.328-.258.278-.278.279-.257.188-.325.209-.349.209-.373.162-.371.117-.397.094-.394.068h-.118l-.185-.256-.139-.139-.279-.326-.303-.279-.349-.256-.348-.232-.373-.209-.395-.188-.42-.138-.511-.141-.442-.068-.42-.024-.162-.023-.093-.233-.139-.349-.117-.395-.045-.35-.047-.394.023-.397.045-.373.094-.371.094-.373.185-.349.186-.325.234-.302.256-.303.277-.279.327-.256.326-.209.371-.209.373-.141.373-.138.394-.094.418-.069h.606l.396.022.395.07.394.094.374.139.373.164.324.209.349.232.047.024-3.838-6.19-6.072.047-3.699 5.979.256-.163.373-.185.372-.141.395-.138.396-.071.419-.07.394-.022.42.022.395.07.396.071.395.138.373.141.348.185.326.209.302.233.28.279.256.303.07.07-.094.209-.162.373-.164.395-.092.396-.07.395-.047.418v.396l.047.418.07.42.115.395.186.488.187.373.024.07-.164.209-.139.141-.256.256-.302.256-.327.232-.348.186-.372.162-.349.14-.395.071-.419.068-.372.023-.419-.023-.396-.047-.395-.092-.373-.117-.535-.232-.349-.186-.325-.209-.302-.256-.28-.279-.255-.303-.233-.326-.187-.326-.186-.418-.093-.35-.092-.371-.024-.396-.023-.373.023-.209v-.069l-3.722 6.118 2.908 5.025 7.979-.023-.232-.069-.187-.07-.372-.164-.348-.186-.327-.232-.302-.256-.28-.279-.256-.303-.208-.326-.209-.324-.14-.374-.116-.371-.094-.49-.024-.394.024-.373.023-.372.071-.373.116-.373.163-.371.046-.093.256-.024h.21l.418-.068.442-.117.396-.116.395-.164.396-.209.349-.209.348-.256.441-.396.28-.301L76.4 14l.071-.07h.047l.232.023.373.07.418.092.373.141.371.162.35.209.303.232.302.235.256.277.256.303.209.326.185.35.139.347.117.373.071.373.047.371v.303l-.024.397-.07.347-.117.373-.139.371-.162.327-.256.441-.256.279-.232.28-.326.256-.303.232-.35.209-.371.164-.373.139-.094.023h7.678l3.141-5.279z" clip-rule="evenodd"/></svg>