<svg xmlns="http://www.w3.org/2000/svg" width="238" height="163.878"><path d="M175.514 295.884c.002-11.236 7.975-20.717 26.77-20.582 12.89.167 16.92 3.03 16.92 3.03l-4.452 11.807c-4.416-1.639-7.298-2.926-13.353-3.03-6.055-.105-11.46 3.07-10.89 6.755.742 4.664 7.639 6.89 13.163 9.754s11.861 7.892 11.743 16.352c.04 16.699-16.626 21.541-27.022 21.75s-16.768-2.476-21.086-5.05l4.924-11.46c4.964 1.811 10.746 4.437 17.141 4.514s10.652-2.625 10.764-7.323c.05-5.14-10.338-9.102-13.384-10.607s-11.208-6.636-11.238-15.91" style="fill:#004b8e;fill-opacity:1;stroke:none" transform="translate(-28.03 -225.572)"/><path d="m147.321 340.583 9.758-52.401h14.528c2.74-8.562 7.68-10.282 12.5-12.375h-54.553l-2.411 12.375h15.446l-9.464 52.401zM71.25 340.583h43.125l2.143-12.15H87.946l2.858-14.91h25.625l2.142-12.054H93.125l2.321-13.287h26.965l2.5-12.375H83.214z" style="fill:#004b8e;fill-opacity:1;stroke:none" transform="translate(-28.03 -225.572)"/><path d="M100.536 265.22s33.156-40.145 92.143-39.644c51.544.439 72.383 29.942 73.035 58.75.643 28.35-33.035 56.257-33.035 56.257s16.653-23.481 16.428-48.935c-.273-30.95-21.456-53.535-66.25-54.286-44.438-.745-82.321 27.857-82.321 27.857" style="fill:#8a2529;fill-opacity:1;stroke:none" transform="translate(-28.03 -225.572)"/><path d="M107.136 247.568c-31.326 9.99-79.347 44.017-79.104 83.798.204 33.545 30.897 58.015 82.832 58.084 79.527.105 120.207-47.795 120.207-47.795s-40.824 35.003-108.214 36.957c-32.242.935-77.84-12.073-77.143-51.607.87-49.304 61.422-79.437 61.422-79.437" style="fill:#004b8e;fill-opacity:1;stroke:none" transform="translate(-28.03 -225.572)"/><g style="font-size:15.66735363px;font-style:normal;font-variant:normal;font-weight:400;font-stretch:normal;line-height:125%;letter-spacing:0;word-spacing:0;fill:#004b8e;fill-opacity:1;stroke:none;font-family:Arial;-inkscape-font-specification:Arial"><path d="M263.111 344.566h-1.874l-.94-2.647q-.285-.788-.77-1.186t-1.304-.398h-2.188v4.23h-1.729v-10.373h4.605q.827 0 1.523.145.696.146 1.197.486t.78.903.28 1.396q0 1.095-.593 1.783t-1.68.895q.567.221.96.715.395.493.685 1.281zm-7.076-5.7h2.693q.573 0 .987-.092.412-.091.677-.29.264-.2.39-.517t.126-.768q0-.811-.486-1.213-.485-.402-1.51-.402h-2.877z" style="font-weight:700;text-align:start;writing-mode:lr-tb;text-anchor:start;fill:#004b8e;font-family:Shruti;-inkscape-font-specification:Shruti Bold" transform="matrix(.97123 0 0 1.02962 -28.03 -225.572)"/></g><path d="M259.821 349.505a8.571 8.571 0 1 1-17.142 0 8.571 8.571 0 0 1 17.142 0z" style="fill:none;stroke:#004b8e;stroke-opacity:1" transform="translate(-28.03 -225.572)"/></svg>