<svg xmlns="http://www.w3.org/2000/svg" width="24" height="24"><path fill="#4E5860" d="M12 0c-.6 0-1 .4-1 1v1c0 .6.4 1 1 1s1-.4 1-1V1c0-.6-.4-1-1-1M4.2 3.2c-.25 0-.5.1-.7.3-.4.4-.4 1 0 1.4l.7.7c.4.4 1 .4 1.4 0s.4-1 0-1.4l-.7-.7a1 1 0 0 0-.7-.3m15.6 0a1 1 0 0 0-.7.3l-.7.7c-.4.4-.4 1 0 1.4s1 .4 1.4 0l.7-.7c.4-.4.4-1 0-1.4-.2-.2-.45-.3-.7-.3M12 5a7 7 0 0 0-7 7 7 7 0 0 0 7 7 7 7 0 0 0 7-7 7 7 0 0 0-7-7M1 11c-.6 0-1 .4-1 1s.4 1 1 1h1c.6 0 1-.4 1-1s-.4-1-1-1zm21 0c-.6 0-1 .4-1 1s.4 1 1 1h1c.6 0 1-.4 1-1s-.4-1-1-1zM4.9 18.1a1 1 0 0 0-.7.3l-.7.7c-.4.4-.4 1 0 1.4s1 .4 1.4 0l.7-.7c.4-.4.4-1 0-1.4-.2-.2-.45-.3-.7-.3m14.2 0c-.25 0-.5.1-.7.3-.4.4-.4 1 0 1.4l.7.7c.4.4 1 .4 1.4 0s.4-1 0-1.4l-.7-.7a1 1 0 0 0-.7-.3M12 21c-.6 0-1 .4-1 1v1c0 .6.4 1 1 1s1-.4 1-1v-1c0-.6-.4-1-1-1"/></svg>