<?xml version="1.0" encoding="iso-8859-1"?>
<!-- Uploaded to: SVG Repo, www.svgrepo.com, Generator: SVG Repo Mixer Tools -->
<svg fill="#000000" height="800px" width="800px" version="1.1" id="Layer_1" xmlns="http://www.w3.org/2000/svg" xmlns:xlink="http://www.w3.org/1999/xlink" 
	 viewBox="0 0 504.311 504.311" xml:space="preserve">
<g>
	<g>
		<path d="M498.846,445.363c-0.216-0.668-0.596-1.28-1.132-1.76l-111.56-100.064c60.44-80.724,48.888-190.396-28.696-267.976
			c-41.884-41.88-98.192-69.04-154.504-74.516C143.782-4.693,90.03,13.299,51.586,51.735c-63.4,63.396-68.452,170.4-13.676,258.516
			c-0.56,2.048-1.06,4.12-1.452,6.24c-0.888,4.764-1.336,9.652-1.336,14.532c0,43.5,35.388,78.892,78.888,78.892
			c9.688,0,18.928-1.84,27.508-5.044c68.092,32.62,142.476,25.956,201.884-18.568l100.064,111.56
			c0.412,0.456,0.952,0.76,1.544,0.948c4.184,3.616,9.612,5.5,15.756,5.5c1.82,0,3.704-0.164,5.632-0.5
			c8.552-1.476,17.112-6.148,24.112-13.152c7.004-7,11.676-15.568,13.148-24.116C505.098,458.203,503.398,450.759,498.846,445.363z
			 M114.006,386.247c-30.444,0-55.224-24.776-55.224-55.228c0-3.424,0.32-6.856,0.94-10.196
			c4.864-26.092,27.692-45.032,54.284-45.032c30.452,0,55.232,24.776,55.232,55.228
			C169.238,361.471,144.462,386.247,114.006,386.247z" fill="#db8700"/>
	</g>
</g>
</svg>