<svg xmlns="http://www.w3.org/2000/svg" width="65" height="84.223" preserveAspectRatio="xMidYMid"><path fill="#DD4814" d="M21.64 83.327a15.94 15.94 0 0 1-9.458-13.282 18.75 18.75 0 0 1 8.51-14.746 6.78 6.78 0 0 0 .521 6.147 5.64 5.64 0 0 0 5.749 2.243c3.131-.88 4.965-4.131 4.084-7.265a5.97 5.97 0 0 0-1.792-2.842 13.05 13.05 0 0 1-4.689-11.933 12.2 12.2 0 0 1 3.806-6.2c-1.406 3.752 2.56 7.453 5.223 9.274a138 138 0 0 1 13.629 9.328A18.36 18.36 0 0 1 54.17 69.68c-1.07 6.392-5.593 11.67-11.756 13.65 12.329-2.743 25.04-12.538 25.283-26.43-.243-11.114-6.877-21.088-17.018-25.631h-.45c.224.544.333 1.13.312 1.722a6.5 6.5 0 0 0 0-1.147q.082.677 0 1.355a5.9 5.9 0 0 1-7.127 4.334 5.88 5.88 0 0 1-3.209-2.05c-4.064-5.21 0-11.138.68-16.869A21.43 21.43 0 0 0 32.015 0c2.973 4.954-.987 11.461-3.865 15.163-2.884 3.701-7.052 6.46-10.448 9.69A85 85 0 0 0 7.676 36.002 33.96 33.96 0 0 0 .728 64.499c2.905 9.69 10.959 16.97 20.891 18.86h.055z"/></svg>